<?xml version="1.0" standalone="no"?> <!DOCTYPE svg PUBLIC "-//W3C//DTD SVG 1.1//EN" "http://www.w3.org/Graphics/SVG/1.1/DTD/svg11.dtd"><svg t="1748688370963" class="icon" viewBox="0 0 1024 1024" version="1.1" xmlns="http://www.w3.org/2000/svg" p-id="7124" xmlns:xlink="http://www.w3.org/1999/xlink" width="200" height="200"><path d="M272 822h-80c-38.59 0-70-31.41-70-70V552c0-38.59 31.41-70 70-70h80c38.59 0 70 31.41 70 70v200c0 38.59-31.41 70-70 70z m-80-280c-5.51 0-10 4.48-10 10v200c0 5.52 4.49 10 10 10h80c5.51 0 10-4.48 10-10V552c0-5.52-4.49-10-10-10h-80zM552 822h-80c-38.59 0-70-31.41-70-70V352c0-38.59 31.41-70 70-70h80c38.59 0 70 31.41 70 70v400c0 38.59-31.41 70-70 70z m-80-480c-5.51 0-10 4.48-10 10v400c0 5.52 4.49 10 10 10h80c5.51 0 10-4.48 10-10V352c0-5.52-4.49-10-10-10h-80zM832 822h-80c-38.59 0-70-31.41-70-70V152c0-38.59 31.41-70 70-70h80c38.59 0 70 31.41 70 70v600c0 38.59-31.41 70-70 70z m-80-680c-5.51 0-10 4.48-10 10v600c0 5.52 4.49 10 10 10h80c5.51 0 10-4.48 10-10V152c0-5.52-4.49-10-10-10h-80z" p-id="7125" fill="#f4ea2a"></path><path d="M912 942H112c-16.56 0-30-13.43-30-30s13.44-30 30-30h800c16.56 0 30 13.43 30 30s-13.44 30-30 30z" p-id="7126" fill="#f4ea2a"></path></svg>
